<?xml version="1.0" encoding="UTF-8" standalone="no"?>
<!DOCTYPE svg PUBLIC "-//W3C//DTD SVG 1.1//EN" "http://www.w3.org/Graphics/SVG/1.1/DTD/svg11.dtd">
<!-- Generated by graphviz version 2.26.3 (20100126.1600)
 -->
<!-- Title: Classes Pages: 1 -->
<svg xmlns="http://www.w3.org/2000/svg" xmlns:xlink="http://www.w3.org/1999/xlink" width="716pt" height="645pt">
<g id="viewport" class="graph" transform="scale(1 1) rotate(0) translate(4 641.2)">
<title>Classes</title>
<polygon fill="white" stroke="white" points="-4,5 -4,-641.2 713,-641.2 713,5 -4,5"/>
<!-- 09a15e9660c1ebc6f429d818825ce0c6 -->
<g id="node1" class="node"><title>09a15e9660c1ebc6f429d818825ce0c6</title>
<polygon fill="white" stroke="black" points="63,-392.482 1,-392.482 1,-356.482 63,-356.482 63,-392.482"/>
<text text-anchor="middle" x="32" y="-369.382" font-family="Times,serif" font-size="14.00" fill="gray">stdClass</text>
</g>
<!-- 506aae36fe3e3963d3b3bfd4f60638fd -->
<g id="node2" class="node"><title>506aae36fe3e3963d3b3bfd4f60638fd</title>
<a xlink:href="_Controller_Controller.html" xlink:title="Controller" target="_top">
<polygon fill="white" stroke="black" points="236,-617.482 160,-617.482 160,-581.482 236,-581.482 236,-617.482"/>
<text text-anchor="middle" x="198" y="-594.382" font-family="Times,serif" font-size="14.00">Controller</text>
</a>
</g>
<!-- 506aae36fe3e3963d3b3bfd4f60638fd&#45;&gt;09a15e9660c1ebc6f429d818825ce0c6 -->
<g id="edge2" class="edge"><title>506aae36fe3e3963d3b3bfd4f60638fd-&gt;09a15e9660c1ebc6f429d818825ce0c6</title>
<path fill="none" stroke="black" d="M182.352,-581.438C168.834,-564.997 149.684,-539.527 138,-514.482 110.79,-456.159 165.359,-374.549 101,-374.482"/>
</g>
<!-- 3a8e2055e44c9e4cca671187e6a43d84 -->
<g id="node3" class="node"><title>3a8e2055e44c9e4cca671187e6a43d84</title>
<a xlink:href="_DependencyInjection_Compiler_AddLoadersPass.html" xlink:title="AddLoadersPass" target="_top">
<polygon fill="white" stroke="black" points="254,-505.482 142,-505.482 142,-469.482 254,-469.482 254,-505.482"/>
<text text-anchor="middle" x="198" y="-482.382" font-family="Times,serif" font-size="14.00">AddLoadersPass</text>
</a>
</g>
<!-- 3a8e2055e44c9e4cca671187e6a43d84&#45;&gt;09a15e9660c1ebc6f429d818825ce0c6 -->
<g id="edge4" class="edge"><title>3a8e2055e44c9e4cca671187e6a43d84-&gt;09a15e9660c1ebc6f429d818825ce0c6</title>
<path fill="none" stroke="black" d="M184.803,-469.329C161.265,-437.391 113.346,-374.495 101,-374.482"/>
</g>
<!-- 932e1010b64f2419ffaeb9d6bcd7a3af -->
<g id="node4" class="node"><title>932e1010b64f2419ffaeb9d6bcd7a3af</title>
<a xlink:href="_DependencyInjection_Configuration.html" xlink:title="Configuration" target="_top">
<polygon fill="white" stroke="black" points="247,-392.482 149,-392.482 149,-356.482 247,-356.482 247,-392.482"/>
<text text-anchor="middle" x="198" y="-369.382" font-family="Times,serif" font-size="14.00">Configuration</text>
</a>
</g>
<!-- 932e1010b64f2419ffaeb9d6bcd7a3af&#45;&gt;09a15e9660c1ebc6f429d818825ce0c6 -->
<g id="edge6" class="edge"><title>932e1010b64f2419ffaeb9d6bcd7a3af-&gt;09a15e9660c1ebc6f429d818825ce0c6</title>
<path fill="none" stroke="black" d="M148.654,-374.502C133.378,-374.503 116.493,-374.498 101,-374.482"/>
</g>
<!-- e0bee725321df9caab0b38a277098c0f -->
<g id="node5" class="node"><title>e0bee725321df9caab0b38a277098c0f</title>
<a xlink:href="_Service_TranslationFinder.html" xlink:title="TranslationFinder" target="_top">
<polygon fill="white" stroke="black" points="257,-280.482 139,-280.482 139,-244.482 257,-244.482 257,-280.482"/>
<text text-anchor="middle" x="198" y="-257.382" font-family="Times,serif" font-size="14.00">TranslationFinder</text>
</a>
</g>
<!-- e0bee725321df9caab0b38a277098c0f&#45;&gt;09a15e9660c1ebc6f429d818825ce0c6 -->
<g id="edge8" class="edge"><title>e0bee725321df9caab0b38a277098c0f-&gt;09a15e9660c1ebc6f429d818825ce0c6</title>
<path fill="none" stroke="black" d="M184.419,-280.979C160.732,-312.795 113.218,-374.495 101,-374.482"/>
</g>
<!-- d1457b72c3fb323a2671125aef3eab5d -->
<g id="node6" class="node"><title>d1457b72c3fb323a2671125aef3eab5d</title>
<polygon fill="white" stroke="black" points="225,-167.482 171,-167.482 171,-131.482 225,-131.482 225,-167.482"/>
<text text-anchor="middle" x="198" y="-144.382" font-family="Times,serif" font-size="14.00" fill="gray">?</text>
</g>
<!-- d1457b72c3fb323a2671125aef3eab5d&#45;&gt;09a15e9660c1ebc6f429d818825ce0c6 -->
<g id="edge10" class="edge"><title>d1457b72c3fb323a2671125aef3eab5d-&gt;09a15e9660c1ebc6f429d818825ce0c6</title>
<path fill="none" stroke="black" d="M101,-374.482C92.2178,-374.473 82.8068,-374.469 73.8474,-374.469"/>
<polygon fill="none" stroke="black" points="73.602,-370.968 63.6021,-374.469 73.6022,-377.968 73.602,-370.968"/>
<path fill="none" stroke="black" d="M182.374,-167.776C168.87,-184.434 149.729,-210.218 138,-235.482 111.079,-293.467 164.929,-374.548 101,-374.482"/>
</g>
<!-- c51e8d861978160ba843a86172a0d968 -->
<g id="node7" class="node"><title>c51e8d861978160ba843a86172a0d968</title>
<polygon fill="white" stroke="black" points="398,-167.482 340,-167.482 340,-131.482 398,-131.482 398,-167.482"/>
<text text-anchor="middle" x="369" y="-144.382" font-family="Times,serif" font-size="14.00" fill="gray">Bundle</text>
</g>
<!-- c51e8d861978160ba843a86172a0d968&#45;&gt;d1457b72c3fb323a2671125aef3eab5d -->
<g id="edge12" class="edge"><title>c51e8d861978160ba843a86172a0d968-&gt;d1457b72c3fb323a2671125aef3eab5d</title>
<path fill="none" stroke="black" d="M339.488,-145.227C325.646,-144.295 309.128,-144.739 295,-149.482"/>
</g>
<!-- 02a46fde8273db03b9ff80460919d9b7 -->
<g id="node8" class="node"><title>02a46fde8273db03b9ff80460919d9b7</title>
<a xlink:href="_BazingaExposeTranslationBundle.html" xlink:title="BazingaExposeTranslationBundle" target="_top">
<polygon fill="white" stroke="black" points="700,-167.482 488,-167.482 488,-131.482 700,-131.482 700,-167.482"/>
<text text-anchor="middle" x="594" y="-144.382" font-family="Times,serif" font-size="14.00">BazingaExposeTranslationBundle</text>
</a>
</g>
<!-- 02a46fde8273db03b9ff80460919d9b7&#45;&gt;c51e8d861978160ba843a86172a0d968 -->
<g id="edge14" class="edge"><title>02a46fde8273db03b9ff80460919d9b7-&gt;c51e8d861978160ba843a86172a0d968</title>
<path fill="none" stroke="black" d="M487.759,-149.482C459.794,-149.482 431.31,-149.482 409.251,-149.482"/>
<polygon fill="none" stroke="black" points="408.968,-145.982 398.968,-149.482 408.968,-152.982 408.968,-145.982"/>
</g>
<!-- ec08c9ae73d5fa79ec0ba8565c4b7c92 -->
<g id="node9" class="node"><title>ec08c9ae73d5fa79ec0ba8565c4b7c92</title>
<polygon fill="white" stroke="black" points="406,-55.4824 332,-55.4824 332,-19.4824 406,-19.4824 406,-55.4824"/>
<text text-anchor="middle" x="369" y="-32.3824" font-family="Times,serif" font-size="14.00" fill="gray">Extension</text>
</g>
<!-- ec08c9ae73d5fa79ec0ba8565c4b7c92&#45;&gt;d1457b72c3fb323a2671125aef3eab5d -->
<g id="edge16" class="edge"><title>ec08c9ae73d5fa79ec0ba8565c4b7c92-&gt;d1457b72c3fb323a2671125aef3eab5d</title>
<path fill="none" stroke="black" d="M364.379,-55.8383C356.095,-83.9459 335.652,-135.834 295,-149.482"/>
<path fill="none" stroke="black" d="M295,-149.482C275.961,-155.874 253.61,-156.311 235.165,-154.954"/>
<polygon fill="none" stroke="black" points="235.371,-151.458 225.088,-154.01 234.718,-158.427 235.371,-151.458"/>
</g>
<!-- f8773f1bebe5abdafddcc5e7abe63ee5 -->
<g id="node10" class="node"><title>f8773f1bebe5abdafddcc5e7abe63ee5</title>
<a xlink:href="_DependencyInjection_BazingaExposeTranslationExtension.html" xlink:title="BazingaExposeTranslationExtension" target="_top">
<polygon fill="white" stroke="black" points="708,-55.4824 480,-55.4824 480,-19.4824 708,-19.4824 708,-55.4824"/>
<text text-anchor="middle" x="594" y="-32.3824" font-family="Times,serif" font-size="14.00">BazingaExposeTranslationExtension</text>
</a>
</g>
<!-- f8773f1bebe5abdafddcc5e7abe63ee5&#45;&gt;ec08c9ae73d5fa79ec0ba8565c4b7c92 -->
<g id="edge18" class="edge"><title>f8773f1bebe5abdafddcc5e7abe63ee5-&gt;ec08c9ae73d5fa79ec0ba8565c4b7c92</title>
<path fill="none" stroke="black" d="M479.852,-37.4824C457.273,-37.4824 434.783,-37.4824 416.021,-37.4824"/>
<polygon fill="none" stroke="black" points="416.004,-33.9825 406.004,-37.4824 416.003,-40.9825 416.004,-33.9825"/>
</g>
</g>
<script xlink:href="js/SVGPan.js"/></svg>
